<svg width="320" height="197" viewBox="0 0 320 197" fill="none" xmlns="http://www.w3.org/2000/svg">
<mask id="mask0_2_392" style="mask-type:alpha" maskUnits="userSpaceOnUse" x="0" y="0" width="320" height="197">
<path fill-rule="evenodd" clip-rule="evenodd" d="M0 0H320V197H0V0Z" fill="white"/>
</mask>
<g mask="url(#mask0_2_392)">
<path d="M39.2079 175.885H35.5023V178.292C35.6641 178.067 35.9034 177.884 36.2202 177.743C36.5369 177.595 36.8782 177.521 37.2442 177.521C37.8284 177.521 38.3035 177.644 38.6695 177.891C39.0355 178.13 39.2959 178.443 39.4507 178.83C39.6126 179.21 39.6935 179.615 39.6935 180.044C39.6935 180.551 39.5985 181.005 39.4085 181.406C39.2185 181.807 38.9264 182.124 38.5322 182.356C38.1451 182.589 37.663 182.705 37.0859 182.705C36.3469 182.705 35.7486 182.515 35.2911 182.135C34.8336 181.755 34.5556 181.248 34.4571 180.614H35.3967C35.4882 181.016 35.6817 181.329 35.9774 181.554C36.273 181.779 36.646 181.892 37.0964 181.892C37.6525 181.892 38.0712 181.726 38.3528 181.396C38.6343 181.058 38.7751 180.614 38.7751 180.065C38.7751 179.516 38.6343 179.094 38.3528 178.798C38.0712 178.496 37.656 178.345 37.107 178.345C36.734 178.345 36.4067 178.436 36.1252 178.619C35.8507 178.795 35.6501 179.038 35.5234 179.347H34.6154V175.04H39.2079V175.885Z" fill="#4B4B4B"/>
<path d="M6.00111 178.104C6.00111 176.894 6.19819 175.951 6.59233 175.275C6.98647 174.592 7.67622 174.251 8.66157 174.251C9.63989 174.251 10.3261 174.592 10.7203 175.275C11.1144 175.951 11.3115 176.894 11.3115 178.104C11.3115 179.336 11.1144 180.293 10.7203 180.976C10.3261 181.659 9.63989 182 8.66157 182C7.67622 182 6.98647 181.659 6.59233 180.976C6.19819 180.293 6.00111 179.336 6.00111 178.104ZM10.3613 178.104C10.3613 177.492 10.3191 176.975 10.2346 176.552C10.1572 176.123 9.9918 175.778 9.73843 175.518C9.49209 175.257 9.13314 175.127 8.66157 175.127C8.18297 175.127 7.81698 175.257 7.56361 175.518C7.31727 175.778 7.15187 176.123 7.06741 176.552C6.98999 176.975 6.95128 177.492 6.95128 178.104C6.95128 178.738 6.98999 179.269 7.06741 179.698C7.15187 180.128 7.31727 180.473 7.56361 180.733C7.81698 180.994 8.18297 181.124 8.66157 181.124C9.13314 181.124 9.49209 180.994 9.73843 180.733C9.9918 180.473 10.1572 180.128 10.2346 179.698C10.3191 179.269 10.3613 178.738 10.3613 178.104Z" fill="#4B4B4B"/>
<path d="M222.052 176.972C222.101 176.325 222.351 175.818 222.801 175.452C223.252 175.086 223.836 174.903 224.554 174.903C225.032 174.903 225.444 174.991 225.789 175.167C226.141 175.336 226.405 175.568 226.581 175.864C226.764 176.159 226.855 176.493 226.855 176.866C226.855 177.303 226.729 177.679 226.475 177.996C226.229 178.313 225.905 178.517 225.504 178.608V178.661C225.961 178.774 226.324 178.996 226.591 179.326C226.859 179.657 226.993 180.09 226.993 180.625C226.993 181.026 226.901 181.389 226.718 181.712C226.535 182.029 226.261 182.279 225.895 182.462C225.529 182.645 225.089 182.736 224.575 182.736C223.829 182.736 223.216 182.543 222.738 182.156C222.259 181.762 221.992 181.206 221.936 180.488H222.865C222.914 180.91 223.086 181.255 223.382 181.522C223.678 181.79 224.072 181.923 224.564 181.923C225.057 181.923 225.43 181.797 225.683 181.543C225.944 181.283 226.074 180.949 226.074 180.54C226.074 180.013 225.898 179.633 225.546 179.4C225.194 179.168 224.663 179.052 223.952 179.052H223.709V178.249H223.963C224.61 178.242 225.099 178.137 225.43 177.933C225.761 177.722 225.926 177.398 225.926 176.961C225.926 176.588 225.803 176.289 225.557 176.064C225.317 175.839 224.973 175.726 224.522 175.726C224.086 175.726 223.734 175.839 223.466 176.064C223.199 176.289 223.041 176.592 222.991 176.972H222.052ZM228.29 178.788C228.29 177.577 228.487 176.634 228.881 175.959C229.275 175.276 229.965 174.934 230.95 174.934C231.928 174.934 232.615 175.276 233.009 175.959C233.403 176.634 233.6 177.577 233.6 178.788C233.6 180.02 233.403 180.977 233.009 181.66C232.615 182.342 231.928 182.684 230.95 182.684C229.965 182.684 229.275 182.342 228.881 181.66C228.487 180.977 228.29 180.02 228.29 178.788ZM232.65 178.788C232.65 178.176 232.608 177.658 232.523 177.236C232.446 176.807 232.28 176.462 232.027 176.201C231.781 175.941 231.422 175.811 230.95 175.811C230.472 175.811 230.106 175.941 229.852 176.201C229.606 176.462 229.44 176.807 229.356 177.236C229.279 177.658 229.24 178.176 229.24 178.788C229.24 179.421 229.279 179.953 229.356 180.382C229.44 180.811 229.606 181.156 229.852 181.417C230.106 181.677 230.472 181.807 230.95 181.807C231.422 181.807 231.781 181.677 232.027 181.417C232.28 181.156 232.446 180.811 232.523 180.382C232.608 179.953 232.65 179.421 232.65 178.788Z" fill="#4B4B4B"/>
<path d="M262.325 176.972C262.374 176.325 262.624 175.818 263.075 175.452C263.525 175.086 264.109 174.903 264.827 174.903C265.306 174.903 265.718 174.991 266.062 175.167C266.414 175.336 266.678 175.568 266.854 175.864C267.037 176.159 267.129 176.493 267.129 176.866C267.129 177.303 267.002 177.679 266.749 177.996C266.502 178.313 266.179 178.517 265.777 178.608V178.661C266.235 178.774 266.597 178.996 266.865 179.326C267.132 179.657 267.266 180.09 267.266 180.625C267.266 181.026 267.174 181.389 266.991 181.712C266.808 182.029 266.534 182.279 266.168 182.462C265.802 182.645 265.362 182.736 264.848 182.736C264.102 182.736 263.49 182.543 263.011 182.156C262.533 181.762 262.265 181.206 262.209 180.488H263.138C263.187 180.91 263.36 181.255 263.655 181.522C263.951 181.79 264.345 181.923 264.838 181.923C265.33 181.923 265.703 181.797 265.957 181.543C266.217 181.283 266.347 180.949 266.347 180.54C266.347 180.013 266.172 179.633 265.82 179.4C265.468 179.168 264.936 179.052 264.225 179.052H263.983V178.249H264.236C264.884 178.242 265.373 178.137 265.703 177.933C266.034 177.722 266.2 177.398 266.2 176.961C266.2 176.588 266.076 176.289 265.83 176.064C265.591 175.839 265.246 175.726 264.796 175.726C264.359 175.726 264.007 175.839 263.74 176.064C263.472 176.289 263.314 176.592 263.265 176.972H262.325ZM273.43 175.885H269.724V178.292C269.886 178.067 270.126 177.884 270.442 177.743C270.759 177.595 271.1 177.521 271.466 177.521C272.051 177.521 272.526 177.644 272.892 177.891C273.258 178.13 273.518 178.443 273.673 178.83C273.835 179.21 273.916 179.615 273.916 180.044C273.916 180.551 273.821 181.005 273.631 181.406C273.441 181.807 273.149 182.124 272.754 182.356C272.367 182.589 271.885 182.705 271.308 182.705C270.569 182.705 269.971 182.515 269.513 182.135C269.056 181.755 268.778 181.248 268.679 180.614H269.619C269.71 181.016 269.904 181.329 270.2 181.554C270.495 181.779 270.868 181.892 271.319 181.892C271.875 181.892 272.293 181.726 272.575 181.396C272.856 181.058 272.997 180.614 272.997 180.065C272.997 179.516 272.856 179.094 272.575 178.798C272.293 178.496 271.878 178.345 271.329 178.345C270.956 178.345 270.629 178.436 270.347 178.619C270.073 178.795 269.872 179.038 269.746 179.347H268.838V175.04H273.43V175.885Z" fill="#4B4B4B"/>
<path d="M302.176 180.984V180.255L305.882 175.125H307.032V180.15H308.088V180.984H307.032V182.684H306.082V180.984H302.176ZM306.125 176.127L303.285 180.15H306.125V176.127ZM309.048 178.788C309.048 177.577 309.245 176.634 309.639 175.959C310.033 175.276 310.723 174.934 311.708 174.934C312.687 174.934 313.373 175.276 313.767 175.959C314.161 176.634 314.358 177.577 314.358 178.788C314.358 180.02 314.161 180.977 313.767 181.66C313.373 182.342 312.687 182.684 311.708 182.684C310.723 182.684 310.033 182.342 309.639 181.66C309.245 180.977 309.048 180.02 309.048 178.788ZM313.408 178.788C313.408 178.176 313.366 177.658 313.281 177.236C313.204 176.807 313.039 176.462 312.785 176.201C312.539 175.941 312.18 175.811 311.708 175.811C311.23 175.811 310.864 175.941 310.61 176.201C310.364 176.462 310.199 176.807 310.114 177.236C310.037 177.658 309.998 178.176 309.998 178.788C309.998 179.421 310.037 179.953 310.114 180.382C310.199 180.811 310.364 181.156 310.61 181.417C310.864 181.677 311.23 181.807 311.708 181.807C312.18 181.807 312.539 181.677 312.785 181.417C313.039 181.156 313.204 180.811 313.281 180.382C313.366 179.953 313.408 179.421 313.408 178.788Z" fill="#4B4B4B"/>
<path d="M181.755 181.913C182.649 181.195 183.35 180.607 183.856 180.15C184.363 179.685 184.789 179.203 185.134 178.703C185.486 178.197 185.662 177.701 185.662 177.215C185.662 176.757 185.549 176.398 185.324 176.138C185.106 175.871 184.75 175.737 184.257 175.737C183.779 175.737 183.406 175.888 183.138 176.191C182.878 176.486 182.737 176.884 182.716 177.384H181.787C181.815 176.596 182.055 175.987 182.505 175.557C182.955 175.128 183.536 174.913 184.247 174.913C184.972 174.913 185.545 175.114 185.968 175.515C186.397 175.916 186.612 176.469 186.612 177.173C186.612 177.757 186.436 178.327 186.084 178.883C185.739 179.432 185.345 179.918 184.901 180.34C184.458 180.755 183.891 181.241 183.202 181.797H186.833V182.599H181.755V181.913ZM192.811 175.885H189.105V178.292C189.267 178.067 189.507 177.884 189.823 177.743C190.14 177.595 190.481 177.521 190.847 177.521C191.432 177.521 191.907 177.644 192.273 177.891C192.639 178.13 192.899 178.443 193.054 178.83C193.216 179.21 193.297 179.615 193.297 180.044C193.297 180.551 193.202 181.005 193.012 181.406C192.822 181.807 192.529 182.124 192.135 182.356C191.748 182.589 191.266 182.705 190.689 182.705C189.95 182.705 189.352 182.515 188.894 182.135C188.437 181.755 188.159 181.248 188.06 180.614H189C189.091 181.016 189.285 181.329 189.58 181.554C189.876 181.779 190.249 181.892 190.7 181.892C191.256 181.892 191.674 181.726 191.956 181.396C192.237 181.058 192.378 180.614 192.378 180.065C192.378 179.516 192.237 179.094 191.956 178.798C191.674 178.496 191.259 178.345 190.71 178.345C190.337 178.345 190.01 178.436 189.728 178.619C189.454 178.795 189.253 179.038 189.126 179.347H188.219V175.04H192.811V175.885Z" fill="#4B4B4B"/>
<path d="M141.482 181.913C142.376 181.195 143.076 180.607 143.583 180.15C144.09 179.685 144.515 179.203 144.86 178.703C145.212 178.197 145.388 177.701 145.388 177.215C145.388 176.757 145.276 176.398 145.05 176.138C144.832 175.871 144.477 175.737 143.984 175.737C143.505 175.737 143.132 175.888 142.865 176.191C142.605 176.486 142.464 176.884 142.443 177.384H141.514C141.542 176.596 141.781 175.987 142.232 175.557C142.682 175.128 143.263 174.913 143.973 174.913C144.698 174.913 145.272 175.114 145.694 175.515C146.124 175.916 146.338 176.469 146.338 177.173C146.338 177.757 146.162 178.327 145.81 178.883C145.466 179.432 145.071 179.918 144.628 180.34C144.185 180.755 143.618 181.241 142.928 181.797H146.56V182.599H141.482V181.913ZM147.671 178.788C147.671 177.577 147.868 176.634 148.262 175.959C148.656 175.276 149.346 174.934 150.331 174.934C151.309 174.934 151.996 175.276 152.39 175.959C152.784 176.634 152.981 177.577 152.981 178.788C152.981 180.02 152.784 180.977 152.39 181.66C151.996 182.342 151.309 182.684 150.331 182.684C149.346 182.684 148.656 182.342 148.262 181.66C147.868 180.977 147.671 180.02 147.671 178.788ZM152.031 178.788C152.031 178.176 151.989 177.658 151.904 177.236C151.827 176.807 151.661 176.462 151.408 176.201C151.162 175.941 150.803 175.811 150.331 175.811C149.852 175.811 149.486 175.941 149.233 176.201C148.987 176.462 148.821 176.807 148.737 177.236C148.66 177.658 148.621 178.176 148.621 178.788C148.621 179.421 148.66 179.953 148.737 180.382C148.821 180.811 148.987 181.156 149.233 181.417C149.486 181.677 149.852 181.807 150.331 181.807C150.803 181.807 151.162 181.677 151.408 181.417C151.661 181.156 151.827 180.811 151.904 180.382C151.989 179.953 152.031 179.421 152.031 178.788Z" fill="#4B4B4B"/>
<path d="M104.25 175.927V175.051H106.235V182.684H105.264V175.927H104.25ZM112.752 175.885H109.047V178.292C109.208 178.067 109.448 177.884 109.764 177.743C110.081 177.595 110.422 177.521 110.788 177.521C111.373 177.521 111.848 177.644 112.214 177.891C112.58 178.13 112.84 178.443 112.995 178.83C113.157 179.21 113.238 179.615 113.238 180.044C113.238 180.551 113.143 181.005 112.953 181.406C112.763 181.807 112.471 182.124 112.076 182.356C111.689 182.589 111.207 182.705 110.63 182.705C109.891 182.705 109.293 182.515 108.835 182.135C108.378 181.755 108.1 181.248 108.001 180.614H108.941C109.032 181.016 109.226 181.329 109.522 181.554C109.817 181.779 110.19 181.892 110.641 181.892C111.197 181.892 111.615 181.726 111.897 181.396C112.179 181.058 112.319 180.614 112.319 180.065C112.319 179.516 112.179 179.094 111.897 178.798C111.615 178.496 111.2 178.345 110.651 178.345C110.278 178.345 109.951 178.436 109.669 178.619C109.395 178.795 109.194 179.038 109.068 179.347H108.16V175.04H112.752V175.885Z" fill="#4B4B4B"/>
<path d="M67.6369 175.927V175.051H69.6217V182.684H68.6504V175.927H67.6369ZM71.2719 178.788C71.2719 177.577 71.469 176.634 71.8631 175.959C72.2573 175.276 72.947 174.934 73.9324 174.934C74.9107 174.934 75.5969 175.276 75.9911 175.959C76.3852 176.634 76.5823 177.577 76.5823 178.788C76.5823 180.02 76.3852 180.977 75.9911 181.66C75.5969 182.342 74.9107 182.684 73.9324 182.684C72.947 182.684 72.2573 182.342 71.8631 181.66C71.469 180.977 71.2719 180.02 71.2719 178.788ZM75.6321 178.788C75.6321 178.176 75.5899 177.658 75.5054 177.236C75.428 176.807 75.2626 176.462 75.0092 176.201C74.7629 175.941 74.4039 175.811 73.9324 175.811C73.4538 175.811 73.0878 175.941 72.8344 176.201C72.5881 176.462 72.4227 176.807 72.3382 177.236C72.2608 177.658 72.2221 178.176 72.2221 178.788C72.2221 179.421 72.2608 179.953 72.3382 180.382C72.4227 180.811 72.5881 181.156 72.8344 181.417C73.0878 181.677 73.4538 181.807 73.9324 181.807C74.4039 181.807 74.7629 181.677 75.0092 181.417C75.2626 181.156 75.428 180.811 75.5054 180.382C75.5899 179.953 75.6321 179.421 75.6321 178.788Z" fill="#4B4B4B"/>
</g>
<path opacity="0.0814312" fill-rule="evenodd" clip-rule="evenodd" d="M1.30647 157.879H318V158.759H1.30647V157.879Z" fill="white"/>
<path d="M55.3087 133.353C55.3087 131.837 56.5381 130.607 58.0546 130.607C59.5711 130.607 60.8005 131.837 60.8005 133.353V157.881C60.8005 158.367 60.4066 158.76 59.9207 158.76H56.1885C55.7026 158.76 55.3087 158.367 55.3087 157.881V133.353Z" fill="#EDD9FC"/>
<path d="M110.226 108.719C110.226 107.202 111.456 105.973 112.972 105.973C114.489 105.973 115.718 107.202 115.718 108.719V157.88C115.718 158.366 115.324 158.76 114.838 158.76H111.106C110.62 158.76 110.226 158.366 110.226 157.88V108.719Z" fill="#EDD9FC"/>
<path d="M165.146 85.8436C165.146 84.327 166.375 83.0977 167.891 83.0977C169.408 83.0977 170.637 84.327 170.637 85.8436V157.879C170.637 158.365 170.243 158.759 169.758 158.759H166.025C165.539 158.759 165.146 158.365 165.146 157.879V85.8436Z" fill="#EDD9FC"/>
<path d="M220.063 62.0897C220.063 60.5731 221.292 59.3438 222.809 59.3438C224.325 59.3438 225.555 60.5731 225.555 62.0897V157.879C225.555 158.365 225.161 158.759 224.675 158.759H220.943C220.457 158.759 220.063 158.365 220.063 157.879V62.0897Z" fill="#EDD9FC"/>
<path opacity="0.19" d="M180.74 86.1776C180.74 93.1905 174.815 98.9345 167.433 98.9345C160.05 98.9345 154.125 93.1905 154.125 86.1776C154.125 79.1647 160.05 73.4208 167.433 73.4208C174.815 73.4208 180.74 79.1647 180.74 86.1776Z" fill="#7F18D0" stroke="white" stroke-width="1.75956"/>
<path d="M78.1913 37.349C78.1913 34.4337 80.5546 32.0703 83.47 32.0703H162.612C165.527 32.0703 167.891 34.4337 167.891 37.349V71.6605H83.47C80.5546 71.6605 78.1913 69.2971 78.1913 66.3818V37.349Z" fill="#7F18D0"/>
<path d="M92.9489 47.5898L95.4449 41.9498L96.0929 41.9498L98.6289 47.5898L97.8609 47.5898L97.1649 45.9898L97.4849 46.1818L94.0529 46.1818L94.4049 45.9898L93.7089 47.5898H92.9489ZM95.7569 42.7818L94.5089 45.7418L94.3169 45.5738L97.2209 45.5738L97.0689 45.7418L95.7889 42.7818H95.7569ZM101.104 49.3818C100.752 49.3818 100.429 49.3392 100.136 49.2538C99.8427 49.1685 99.5787 49.0378 99.3441 48.8618L99.5361 48.3258C99.7014 48.4378 99.8641 48.5285 100.024 48.5978C100.184 48.6672 100.349 48.7178 100.52 48.7498C100.696 48.7818 100.877 48.7978 101.064 48.7978C101.459 48.7978 101.755 48.6965 101.952 48.4938C102.149 48.2912 102.248 48.0032 102.248 47.6298V46.5018H102.328C102.243 46.8058 102.067 47.0485 101.8 47.2298C101.539 47.4058 101.229 47.4938 100.872 47.4938C100.509 47.4938 100.192 47.4138 99.9201 47.2538C99.6534 47.0885 99.4454 46.8565 99.2961 46.5578C99.1467 46.2538 99.0721 45.8992 99.0721 45.4938C99.0721 45.0832 99.1467 44.7285 99.2961 44.4298C99.4454 44.1312 99.6534 43.9018 99.9201 43.7418C100.192 43.5765 100.509 43.4938 100.872 43.4938C101.229 43.4938 101.539 43.5818 101.8 43.7578C102.061 43.9338 102.235 44.1765 102.32 44.4858L102.248 44.4138L102.32 43.5658L103.024 43.5658C103.008 43.7258 102.992 43.8858 102.976 44.0458C102.965 44.2058 102.96 44.3632 102.96 44.5178L102.96 47.5418C102.96 48.1392 102.803 48.5952 102.488 48.9098C102.179 49.2245 101.717 49.3818 101.104 49.3818ZM101.032 46.9178C101.4 46.9178 101.693 46.7925 101.912 46.5418C102.131 46.2912 102.24 45.9418 102.24 45.4938C102.24 45.0405 102.131 44.6912 101.912 44.4458C101.693 44.2005 101.4 44.0778 101.032 44.0778C100.659 44.0778 100.36 44.2005 100.136 44.4458C99.9174 44.6912 99.8081 45.0405 99.8081 45.4938C99.8081 45.9418 99.9174 46.2912 100.136 46.5418C100.36 46.7925 100.659 46.9178 101.032 46.9178ZM106.011 47.6618C105.371 47.6618 104.865 47.4778 104.491 47.1098C104.123 46.7418 103.939 46.2352 103.939 45.5898C103.939 45.1632 104.019 44.7952 104.179 44.4858C104.345 44.1712 104.571 43.9285 104.859 43.7578C105.147 43.5818 105.483 43.4938 105.867 43.4938C106.235 43.4938 106.547 43.5738 106.803 43.7338C107.059 43.8885 107.254 44.1098 107.387 44.3978C107.521 44.6858 107.587 45.0272 107.587 45.4218V45.6618L104.507 45.6618V45.2298H107.091L106.955 45.3338C106.955 44.9178 106.862 44.5952 106.675 44.3658C106.494 44.1365 106.225 44.0218 105.867 44.0218C105.478 44.0218 105.177 44.1578 104.963 44.4298C104.75 44.6965 104.643 45.0618 104.643 45.5258V45.5978C104.643 46.0885 104.763 46.4592 105.003 46.7098C105.249 46.9605 105.587 47.0858 106.019 47.0858C106.259 47.0858 106.483 47.0512 106.691 46.9818C106.899 46.9125 107.099 46.7978 107.291 46.6378L107.531 47.1418C107.35 47.3072 107.123 47.4352 106.851 47.5258C106.585 47.6165 106.305 47.6618 106.011 47.6618ZM110.52 44.7658C110.52 44.1738 110.624 43.6618 110.832 43.2298C111.04 42.7978 111.339 42.4645 111.728 42.2298C112.123 41.9952 112.592 41.8778 113.136 41.8778C113.675 41.8778 114.139 41.9952 114.528 42.2298C114.923 42.4645 115.227 42.7978 115.44 43.2298C115.653 43.6618 115.76 44.1712 115.76 44.7578C115.76 45.3498 115.653 45.8645 115.44 46.3018C115.227 46.7338 114.923 47.0698 114.528 47.3098C114.139 47.5445 113.675 47.6618 113.136 47.6618C112.592 47.6618 112.125 47.5445 111.736 47.3098C111.347 47.0698 111.045 46.7338 110.832 46.3018C110.624 45.8645 110.52 45.3525 110.52 44.7658ZM111.304 44.7658C111.304 45.4698 111.459 46.0192 111.768 46.4138C112.077 46.8085 112.533 47.0058 113.136 47.0058C113.717 47.0058 114.168 46.8112 114.488 46.4218C114.813 46.0272 114.976 45.4752 114.976 44.7658C114.976 44.0565 114.816 43.5072 114.496 43.1178C114.176 42.7285 113.723 42.5338 113.136 42.5338C112.533 42.5338 112.077 42.7285 111.768 43.1178C111.459 43.5072 111.304 44.0565 111.304 44.7658ZM117.083 47.5898L117.083 44.1258H116.299V43.5658H117.283L117.083 43.7498V43.1018C117.083 42.6325 117.2 42.2778 117.435 42.0378C117.67 41.7925 118.011 41.6698 118.459 41.6698C118.566 41.6698 118.678 41.6778 118.795 41.6938C118.918 41.7098 119.019 41.7365 119.099 41.7738V42.3658C119.035 42.3392 118.955 42.3178 118.859 42.3018C118.763 42.2858 118.67 42.2778 118.579 42.2778C118.419 42.2778 118.28 42.3098 118.163 42.3738C118.046 42.4378 117.958 42.5338 117.899 42.6618C117.84 42.7845 117.811 42.9472 117.811 43.1498V43.7178L117.699 43.5658H118.923V44.1258H117.811L117.811 47.5898L117.083 47.5898ZM123.158 47.5898L123.158 42.5818L121.206 42.5818V41.9498L125.87 41.9498V42.5818L123.91 42.5818L123.91 47.5898H123.158ZM125.96 47.5898L125.96 44.5498C125.96 44.3898 125.955 44.2272 125.944 44.0618C125.939 43.8912 125.926 43.7258 125.904 43.5658L126.608 43.5658L126.696 44.5738L126.576 44.5818C126.63 44.3365 126.72 44.1338 126.848 43.9738C126.982 43.8085 127.139 43.6885 127.32 43.6138C127.507 43.5338 127.699 43.4938 127.896 43.4938C127.982 43.4938 128.054 43.4965 128.112 43.5018C128.171 43.5072 128.23 43.5205 128.288 43.5418L128.272 44.1898C128.192 44.1578 128.118 44.1392 128.048 44.1338C127.984 44.1232 127.904 44.1178 127.808 44.1178C127.574 44.1178 127.371 44.1712 127.2 44.2778C127.035 44.3845 126.907 44.5258 126.816 44.7018C126.731 44.8778 126.688 45.0672 126.688 45.2698L126.688 47.5898L125.96 47.5898ZM130.426 47.6618C130.074 47.6618 129.765 47.5792 129.498 47.4138C129.232 47.2485 129.024 47.0085 128.874 46.6938C128.725 46.3792 128.65 46.0058 128.65 45.5738C128.65 45.1418 128.725 44.7712 128.874 44.4618C129.024 44.1472 129.232 43.9072 129.498 43.7418C129.765 43.5765 130.074 43.4938 130.426 43.4938C130.784 43.4938 131.093 43.5845 131.354 43.7658C131.621 43.9418 131.797 44.1845 131.882 44.4938H131.786L131.874 43.5658H132.578C132.562 43.7258 132.546 43.8858 132.53 44.0458C132.52 44.2058 132.514 44.3632 132.514 44.5178L132.514 47.5898H131.786V46.6698H131.874C131.789 46.9738 131.613 47.2165 131.346 47.3978C131.085 47.5738 130.778 47.6618 130.426 47.6618ZM130.594 47.0858C130.957 47.0858 131.248 46.9578 131.466 46.7018C131.685 46.4458 131.794 46.0698 131.794 45.5738C131.794 45.0778 131.685 44.7045 131.466 44.4538C131.248 44.2032 130.957 44.0778 130.594 44.0778C130.232 44.0778 129.938 44.2032 129.714 44.4538C129.496 44.7045 129.386 45.0778 129.386 45.5738C129.386 46.0698 129.496 46.4458 129.714 46.7018C129.933 46.9578 130.226 47.0858 130.594 47.0858ZM133.734 47.5898L133.734 44.5178C133.734 44.3632 133.729 44.2058 133.718 44.0458C133.707 43.8858 133.691 43.7258 133.67 43.5658H134.374L134.454 44.4298H134.358C134.481 44.1258 134.67 43.8938 134.926 43.7338C135.182 43.5738 135.481 43.4938 135.822 43.4938C136.297 43.4938 136.654 43.6245 136.894 43.8858C137.134 44.1418 137.254 44.5418 137.254 45.0858L137.254 47.5898H136.526L136.526 45.1258C136.526 44.7578 136.454 44.4938 136.31 44.3338C136.166 44.1685 135.942 44.0858 135.638 44.0858C135.275 44.0858 134.987 44.1952 134.774 44.4138C134.566 44.6325 134.462 44.9285 134.462 45.3018L134.462 47.5898H133.734ZM139.805 47.6618C139.48 47.6618 139.176 47.6192 138.893 47.5338C138.616 47.4485 138.386 47.3258 138.205 47.1658L138.437 46.6618C138.634 46.8112 138.85 46.9258 139.085 47.0058C139.325 47.0805 139.57 47.1178 139.821 47.1178C140.125 47.1178 140.354 47.0618 140.509 46.9498C140.669 46.8378 140.749 46.6885 140.749 46.5018C140.749 46.3525 140.698 46.2325 140.597 46.1418C140.496 46.0512 140.336 45.9845 140.117 45.9418L139.357 45.7898C139.016 45.7098 138.757 45.5818 138.581 45.4058C138.41 45.2245 138.325 44.9925 138.325 44.7098C138.325 44.4752 138.389 44.2672 138.517 44.0858C138.645 43.8992 138.826 43.7552 139.061 43.6538C139.301 43.5472 139.581 43.4938 139.901 43.4938C140.194 43.4938 140.466 43.5365 140.717 43.6218C140.973 43.7072 141.184 43.8325 141.349 43.9978L141.109 44.4858C140.944 44.3418 140.757 44.2325 140.549 44.1578C140.346 44.0778 140.138 44.0378 139.925 44.0378C139.616 44.0378 139.386 44.0992 139.237 44.2218C139.088 44.3392 139.013 44.4938 139.013 44.6858C139.013 44.8298 139.058 44.9498 139.149 45.0458C139.24 45.1365 139.386 45.2058 139.589 45.2538L140.349 45.4058C140.706 45.4805 140.976 45.6032 141.157 45.7738C141.338 45.9445 141.429 46.1712 141.429 46.4538C141.429 46.7045 141.36 46.9205 141.221 47.1018C141.088 47.2832 140.898 47.4218 140.653 47.5178C140.413 47.6138 140.13 47.6618 139.805 47.6618ZM142.645 47.5898L142.645 44.1258H141.861V43.5658H142.845L142.645 43.7498V43.1018C142.645 42.6325 142.763 42.2778 142.997 42.0378C143.232 41.7925 143.573 41.6698 144.021 41.6698C144.128 41.6698 144.24 41.6778 144.357 41.6938C144.48 41.7098 144.581 41.7365 144.661 41.7738V42.3658C144.597 42.3392 144.517 42.3178 144.421 42.3018C144.325 42.2858 144.232 42.2778 144.141 42.2778C143.981 42.2778 143.843 42.3098 143.725 42.3738C143.608 42.4378 143.52 42.5338 143.461 42.6618C143.403 42.7845 143.373 42.9472 143.373 43.1498V43.7178L143.261 43.5658L144.485 43.5658V44.1258H143.373L143.373 47.5898L142.645 47.5898ZM146.902 47.6618C146.262 47.6618 145.755 47.4778 145.382 47.1098C145.014 46.7418 144.83 46.2352 144.83 45.5898C144.83 45.1632 144.91 44.7952 145.07 44.4858C145.235 44.1712 145.462 43.9285 145.75 43.7578C146.038 43.5818 146.374 43.4938 146.758 43.4938C147.126 43.4938 147.438 43.5738 147.694 43.7338C147.95 43.8885 148.145 44.1098 148.278 44.3978C148.411 44.6858 148.478 45.0272 148.478 45.4218V45.6618L145.398 45.6618V45.2298L147.982 45.2298L147.846 45.3338C147.846 44.9178 147.753 44.5952 147.566 44.3658C147.385 44.1365 147.115 44.0218 146.758 44.0218C146.369 44.0218 146.067 44.1578 145.854 44.4298C145.641 44.6965 145.534 45.0618 145.534 45.5258V45.5978C145.534 46.0885 145.654 46.4592 145.894 46.7098C146.139 46.9605 146.478 47.0858 146.91 47.0858C147.15 47.0858 147.374 47.0512 147.582 46.9818C147.79 46.9125 147.99 46.7978 148.182 46.6378L148.422 47.1418C148.241 47.3072 148.014 47.4352 147.742 47.5258C147.475 47.6165 147.195 47.6618 146.902 47.6618ZM149.421 47.5898L149.421 44.5498C149.421 44.3898 149.416 44.2272 149.405 44.0618C149.4 43.8912 149.387 43.7258 149.365 43.5658H150.069L150.157 44.5738L150.037 44.5818C150.091 44.3365 150.181 44.1338 150.309 43.9738C150.443 43.8085 150.6 43.6885 150.781 43.6138C150.968 43.5338 151.16 43.4938 151.357 43.4938C151.443 43.4938 151.515 43.4965 151.573 43.5018C151.632 43.5072 151.691 43.5205 151.749 43.5418L151.733 44.1898C151.653 44.1578 151.579 44.1392 151.509 44.1338C151.445 44.1232 151.365 44.1178 151.269 44.1178C151.035 44.1178 150.832 44.1712 150.661 44.2778C150.496 44.3845 150.368 44.5258 150.277 44.7018C150.192 44.8778 150.149 45.0672 150.149 45.2698L150.149 47.5898H149.421Z" fill="white"/>
<path d="M98.2128 66.5176L98.2128 64.8152L98.4767 65.066C97.8345 65.0572 97.2318 64.9648 96.6688 64.7889C96.1057 64.6041 95.613 64.3358 95.1907 63.9839L95.6394 62.9017C96.0617 63.236 96.5104 63.4868 96.9855 63.6539C97.4694 63.8211 98.0148 63.9047 98.6219 63.9047C99.3345 63.9047 99.858 63.7727 100.192 63.5088C100.535 63.236 100.707 62.8929 100.707 62.4794C100.707 62.1363 100.584 61.8636 100.337 61.6612C100.1 61.4589 99.6952 61.2961 99.1234 61.173L97.7641 60.8826C96.9547 60.7067 96.3565 60.4163 95.9694 60.0116C95.5822 59.6069 95.3887 59.0703 95.3887 58.4016C95.3887 57.8826 95.5119 57.4207 95.7582 57.016C96.0133 56.6113 96.3653 56.2902 96.8139 56.0526C97.2714 55.8151 97.8037 55.6787 98.4107 55.6435L98.2128 55.8283V54.1787L99.2949 54.1787V55.8283L99.0706 55.6435C99.5633 55.6611 100.052 55.7623 100.535 55.947C101.019 56.123 101.428 56.3869 101.763 56.7389L101.327 57.7814C100.984 57.4471 100.597 57.2007 100.166 57.0424C99.7348 56.8752 99.2597 56.7916 98.7407 56.7916C98.1072 56.7916 97.6057 56.9368 97.2362 57.2271C96.8755 57.5175 96.6952 57.8958 96.6952 58.362C96.6952 58.714 96.8095 58.9999 97.0383 59.2198C97.267 59.4398 97.6453 59.6069 98.1732 59.7213L99.5325 60.0116C100.377 60.1876 101.006 60.4691 101.42 60.8562C101.833 61.2433 102.04 61.758 102.04 62.4002C102.04 62.9017 101.912 63.346 101.657 63.7331C101.402 64.1114 101.05 64.4149 100.601 64.6437C100.162 64.8636 99.6512 65 99.0706 65.0528L99.2949 64.802L99.2949 66.5176H98.2128ZM103.895 65V63.8519L106.06 63.8519L106.06 56.8576H106.746L104.107 58.4676L104.107 57.148L106.442 55.6963L107.432 55.6963L107.432 63.8519L109.464 63.8519V65L103.895 65ZM114.87 65V63.0733L110.568 63.0733V62.0967L115.094 55.6963L116.203 55.6963L116.203 62.0043H117.588V63.0733L116.203 63.0733V65H114.87ZM114.87 62.0043L114.87 57.3195H115.173L111.637 62.3343V62.0043L114.87 62.0043ZM121.701 65.1188C121.296 65.1188 120.896 65.0748 120.5 64.9868C120.104 64.8988 119.734 64.7757 119.391 64.6173C119.048 64.4501 118.749 64.2522 118.494 64.0234L118.969 62.9809C119.391 63.3064 119.822 63.5528 120.262 63.7199C120.711 63.8783 121.182 63.9575 121.674 63.9575C122.299 63.9575 122.787 63.7947 123.139 63.4692C123.5 63.1437 123.68 62.7082 123.68 62.1627C123.68 61.5996 123.509 61.1466 123.166 60.8034C122.831 60.4515 122.365 60.2756 121.767 60.2756C121.353 60.2756 120.975 60.3592 120.632 60.5263C120.297 60.6935 120.003 60.9486 119.748 61.2917H118.797L118.797 55.6963L124.432 55.6963V56.8444L120.104 56.8444L120.104 60.1964L119.761 60.1964C119.998 59.8621 120.315 59.6025 120.711 59.4178C121.116 59.233 121.569 59.1407 122.07 59.1407C122.668 59.1407 123.188 59.2638 123.627 59.5102C124.067 59.7565 124.406 60.0996 124.644 60.5395C124.89 60.9794 125.013 61.4985 125.013 62.0967C125.013 62.695 124.877 63.2228 124.604 63.6803C124.34 64.129 123.957 64.4809 123.456 64.7361C122.963 64.9912 122.378 65.1188 121.701 65.1188ZM126.71 66.6232L126.13 66.1745C126.385 65.9018 126.556 65.651 126.644 65.4223C126.741 65.1936 126.789 64.956 126.789 64.7097L127.08 65H126.037V63.4296L127.608 63.4296V64.4985C127.608 64.8944 127.542 65.2595 127.41 65.5939C127.278 65.937 127.045 66.2801 126.71 66.6232ZM129.71 65V63.8519L131.874 63.8519L131.874 56.8576H132.56L129.921 58.4676L129.921 57.148L132.257 55.6963L133.247 55.6963L133.247 63.8519H135.279V65L129.71 65ZM139.642 65.1188C139.009 65.1188 138.401 65.0264 137.821 64.8416C137.24 64.6481 136.756 64.3754 136.369 64.0234L136.844 62.9809C137.275 63.3152 137.715 63.5616 138.164 63.7199C138.613 63.8783 139.092 63.9575 139.602 63.9575C140.253 63.9575 140.746 63.8211 141.08 63.5484C141.424 63.2756 141.595 62.8841 141.595 62.3739C141.595 61.8724 141.424 61.4941 141.08 61.2389C140.746 60.975 140.249 60.843 139.589 60.843L138.151 60.843L138.151 59.7345L139.484 59.7345C140.047 59.7345 140.495 59.5937 140.83 59.3122C141.164 59.0219 141.331 58.6304 141.331 58.1377C141.331 57.689 141.177 57.3459 140.869 57.1084C140.561 56.862 140.121 56.7389 139.55 56.7389C138.582 56.7389 137.733 57.0776 137.003 57.755L136.541 56.7125C136.901 56.3517 137.359 56.0746 137.913 55.8811C138.467 55.6787 139.048 55.5775 139.655 55.5775C140.588 55.5775 141.322 55.7931 141.859 56.2242C142.396 56.6465 142.664 57.2359 142.664 57.9925C142.664 58.5644 142.501 59.0527 142.176 59.4574C141.859 59.8621 141.424 60.1304 140.869 60.2624V60.1172C141.529 60.2228 142.035 60.4867 142.387 60.909C142.748 61.3225 142.928 61.8416 142.928 62.4662C142.928 63.2932 142.633 63.9443 142.044 64.4193C141.463 64.8856 140.662 65.1188 139.642 65.1188ZM147.291 65.1188C146.657 65.1188 146.05 65.0264 145.47 64.8416C144.889 64.6481 144.405 64.3754 144.018 64.0234L144.493 62.9809C144.924 63.3152 145.364 63.5616 145.813 63.7199C146.262 63.8783 146.741 63.9575 147.251 63.9575C147.902 63.9575 148.395 63.8211 148.729 63.5484C149.072 63.2756 149.244 62.8841 149.244 62.3739C149.244 61.8724 149.072 61.4941 148.729 61.2389C148.395 60.975 147.898 60.843 147.238 60.843L145.8 60.843L145.8 59.7345L147.133 59.7345C147.696 59.7345 148.144 59.5937 148.479 59.3122C148.813 59.0219 148.98 58.6304 148.98 58.1377C148.98 57.689 148.826 57.3459 148.518 57.1084C148.21 56.862 147.77 56.7389 147.199 56.7389C146.231 56.7389 145.382 57.0776 144.652 57.755L144.19 56.7125C144.55 56.3517 145.008 56.0746 145.562 55.8811C146.116 55.6787 146.697 55.5775 147.304 55.5775C148.237 55.5775 148.971 55.7931 149.508 56.2242C150.045 56.6465 150.313 57.2359 150.313 57.9925C150.313 58.5644 150.15 59.0527 149.825 59.4574C149.508 59.8621 149.072 60.1304 148.518 60.2624V60.1172C149.178 60.2228 149.684 60.4867 150.036 60.909C150.397 61.3225 150.577 61.8416 150.577 62.4662C150.577 63.2932 150.282 63.9443 149.693 64.4193C149.112 64.8856 148.311 65.1188 147.291 65.1188Z" fill="white"/>
<path d="M167.893 81.3397L159.656 71.6621H167.893V81.3397Z" fill="#7F18D0"/>
<path d="M274.98 37.4568C274.98 35.9403 276.21 34.7109 277.726 34.7109C279.243 34.7109 280.472 35.9403 280.472 37.4568V157.88C280.472 158.366 280.078 158.76 279.592 158.76H275.86C275.374 158.76 274.98 158.366 274.98 157.88V37.4568Z" fill="#EDD9FC"/>
<path d="M18.6957 154.467C18.6957 152.95 19.9251 151.721 21.4416 151.721C22.9582 151.721 24.1875 152.95 24.1875 154.467V157.879C24.1875 158.365 23.7937 158.759 23.3078 158.759H19.5755C19.0896 158.759 18.6957 158.365 18.6957 157.879V154.467Z" fill="#EDD9FC"/>
<path d="M73.6132 125.435C73.6132 123.919 74.8426 122.689 76.3591 122.689C77.8756 122.689 79.105 123.919 79.105 125.435V157.881C79.105 158.367 78.7111 158.76 78.2252 158.76H74.493C74.0071 158.76 73.6132 158.367 73.6132 157.881V125.435Z" fill="#EDD9FC"/>
<path d="M128.531 101.679C128.531 100.163 129.76 98.9336 131.277 98.9336C132.793 98.9336 134.022 100.163 134.022 101.679V157.879C134.022 158.365 133.629 158.759 133.143 158.759H129.41C128.925 158.759 128.531 158.365 128.531 157.879V101.679Z" fill="#EDD9FC"/>
<path d="M183.45 77.9256C183.45 76.4091 184.679 75.1797 186.196 75.1797C187.712 75.1797 188.942 76.4091 188.942 77.9256V157.879C188.942 158.365 188.548 158.759 188.062 158.759H184.33C183.844 158.759 183.45 158.365 183.45 157.879V77.9256Z" fill="#EDD9FC"/>
<path d="M238.368 53.2928C238.368 51.7763 239.597 50.5469 241.113 50.5469C242.63 50.5469 243.859 51.7763 243.859 53.2928V157.88C243.859 158.366 243.465 158.76 242.98 158.76H239.247C238.761 158.76 238.368 158.366 238.368 157.88V53.2928Z" fill="#EDD9FC"/>
<path d="M293.287 29.5389C293.287 28.0223 294.516 26.793 296.033 26.793C297.549 26.793 298.779 28.0224 298.779 29.5389V157.88C298.779 158.366 298.385 158.76 297.899 158.76H294.167C293.681 158.76 293.287 158.366 293.287 157.88V29.5389Z" fill="#EDD9FC"/>
<path d="M37.0022 140.39C37.0022 138.874 38.2316 137.645 39.7481 137.645C41.2646 137.645 42.494 138.874 42.494 140.39V157.88C42.494 158.365 42.1001 158.759 41.6142 158.759H37.882C37.3961 158.759 37.0022 158.365 37.0022 157.88V140.39Z" fill="#EDD9FC"/>
<path d="M91.9197 117.515C91.9197 115.999 93.1491 114.77 94.6656 114.77C96.1821 114.77 97.4115 115.999 97.4115 117.515V157.879C97.4115 158.365 97.0176 158.759 96.5317 158.759H92.7995C92.3136 158.759 91.9197 158.365 91.9197 157.879V117.515Z" fill="#EDD9FC"/>
<path d="M146.839 93.7615C146.839 92.245 148.068 91.0156 149.585 91.0156C151.102 91.0156 152.331 92.245 152.331 93.7615V157.879C152.331 158.365 151.937 158.759 151.451 158.759H147.719C147.233 158.759 146.839 158.365 146.839 157.879V93.7615Z" fill="#EDD9FC"/>
<path d="M201.757 70.0076C201.757 68.4911 202.986 67.2617 204.502 67.2617C206.019 67.2617 207.248 68.4911 207.248 70.0076V157.879C207.248 158.365 206.854 158.759 206.369 158.759H202.636C202.15 158.759 201.757 158.365 201.757 157.879V70.0076Z" fill="#EDD9FC"/>
<path d="M256.674 45.3748C256.674 43.8583 257.903 42.6289 259.42 42.6289C260.936 42.6289 262.166 43.8583 262.166 45.3748V157.88C262.166 158.366 261.772 158.76 261.286 158.76H257.554C257.068 158.76 256.674 158.366 256.674 157.88V45.3748Z" fill="#EDD9FC"/>
<path d="M311.593 21.6209C311.593 20.1044 312.823 18.875 314.339 18.875C315.856 18.875 317.085 20.1044 317.085 21.6209V157.88C317.085 158.366 316.691 158.76 316.205 158.76H312.473C311.987 158.76 311.593 158.366 311.593 157.88V21.6209Z" fill="#EDD9FC"/>
<path d="M6 155.746C6 154.229 7.22938 153 8.7459 153C10.2624 153 11.4918 154.229 11.4918 155.746V157.399C11.4918 157.885 11.0979 158.279 10.612 158.279H6.87978C6.39389 158.279 6 157.885 6 157.399V155.746Z" fill="#7F18D0"/>
<path d="M55.3087 148.308C55.3087 146.792 56.5381 145.562 58.0546 145.562C59.5711 145.562 60.8005 146.792 60.8005 148.308V157.879C60.8005 158.365 60.4066 158.759 59.9207 158.759H56.1885C55.7026 158.759 55.3087 158.365 55.3087 157.879V148.308Z" fill="#7F18D0"/>
<path d="M110.226 133.353C110.226 131.837 111.456 130.607 112.972 130.607C114.489 130.607 115.718 131.837 115.718 133.353V157.881C115.718 158.367 115.324 158.76 114.838 158.76H111.106C110.62 158.76 110.226 158.367 110.226 157.881V133.353Z" fill="#7F18D0"/>
<path d="M165 108.746C165 107.229 166.229 106 167.746 106C169.262 106 170.492 107.229 170.492 108.746V157.907C170.492 158.393 170.098 158.787 169.612 158.787H165.88C165.394 158.787 165 158.393 165 157.907V108.746Z" fill="#7F18D0"/>
<path d="M220.063 79.6854C220.063 78.1688 221.292 76.9395 222.809 76.9395C224.325 76.9395 225.555 78.1688 225.555 79.6854V157.879C225.555 158.365 225.161 158.759 224.675 158.759H220.943C220.457 158.759 220.063 158.365 220.063 157.879V79.6854Z" fill="#7F18D0"/>
<path d="M274.98 46.2537C274.98 44.7372 276.21 43.5078 277.726 43.5078C279.243 43.5078 280.472 44.7372 280.472 46.2537V157.879C280.472 158.365 280.078 158.759 279.592 158.759H275.86C275.374 158.759 274.98 158.365 274.98 157.879V46.2537Z" fill="#7F18D0"/>
<path d="M18.6957 154.467C18.6957 152.95 19.9251 151.721 21.4416 151.721C22.9582 151.721 24.1875 152.95 24.1875 154.467V157.879C24.1875 158.365 23.7937 158.759 23.3078 158.759H19.5755C19.0896 158.759 18.6957 158.365 18.6957 157.879V154.467Z" fill="#7F18D0"/>
<path d="M73.6132 143.029C73.6132 141.513 74.8426 140.283 76.3591 140.283C77.8756 140.283 79.105 141.513 79.105 143.029V157.879C79.105 158.365 78.7111 158.759 78.2252 158.759H74.493C74.0071 158.759 73.6132 158.365 73.6132 157.879V143.029Z" fill="#7F18D0"/>
<path d="M128.531 125.435C128.531 123.919 129.76 122.689 131.277 122.689C132.793 122.689 134.022 123.919 134.022 125.435V157.881C134.022 158.367 133.629 158.76 133.143 158.76H129.41C128.925 158.76 128.531 158.367 128.531 157.881V125.435Z" fill="#7F18D0"/>
<path d="M183.45 97.2811C183.45 95.7645 184.679 94.5352 186.196 94.5352C187.712 94.5352 188.942 95.7645 188.942 97.2811V157.879C188.942 158.365 188.548 158.759 188.062 158.759H184.33C183.844 158.759 183.45 158.365 183.45 157.879V97.2811Z" fill="#7F18D0"/>
<path d="M238.368 70.0076C238.368 68.4911 239.597 67.2617 241.113 67.2617C242.63 67.2617 243.859 68.4911 243.859 70.0076V157.879C243.859 158.365 243.465 158.759 242.98 158.759H239.247C238.761 158.759 238.368 158.365 238.368 157.879V70.0076Z" fill="#7F18D0"/>
<path d="M293.287 35.6971C293.287 34.1805 294.516 32.9512 296.033 32.9512C297.549 32.9512 298.779 34.1806 298.779 35.6971V157.88C298.779 158.366 298.385 158.76 297.899 158.76H294.167C293.681 158.76 293.287 158.366 293.287 157.88V35.6971Z" fill="#7F18D0"/>
<path d="M37.0022 152.707C37.0022 151.19 38.2316 149.961 39.7481 149.961C41.2646 149.961 42.494 151.19 42.494 152.707V157.879C42.494 158.365 42.1001 158.759 41.6142 158.759H37.882C37.3961 158.759 37.0022 158.365 37.0022 157.879V152.707Z" fill="#7F18D0"/>
<path d="M91.9197 140.39C91.9197 138.874 93.1491 137.645 94.6656 137.645C96.1821 137.645 97.4115 138.874 97.4115 140.39V157.88C97.4115 158.365 97.0176 158.759 96.5317 158.759H92.7995C92.3136 158.759 91.9197 158.365 91.9197 157.88V140.39Z" fill="#7F18D0"/>
<path d="M146.839 118.396C146.839 116.88 148.068 115.65 149.585 115.65C151.102 115.65 152.331 116.88 152.331 118.396V157.88C152.331 158.366 151.937 158.76 151.451 158.76H147.719C147.233 158.76 146.839 158.366 146.839 157.88V118.396Z" fill="#7F18D0"/>
<path d="M201.757 87.6033C201.757 86.0868 202.986 84.8574 204.502 84.8574C206.019 84.8574 207.248 86.0868 207.248 87.6033V157.879C207.248 158.365 206.854 158.759 206.369 158.759H202.636C202.15 158.759 201.757 158.365 201.757 157.879V87.6033Z" fill="#7F18D0"/>
<path d="M256.674 57.6912C256.674 56.1747 257.903 54.9453 259.42 54.9453C260.936 54.9453 262.166 56.1747 262.166 57.6912V157.88C262.166 158.366 261.772 158.76 261.286 158.76H257.554C257.068 158.76 256.674 158.366 256.674 157.88V57.6912Z" fill="#7F18D0"/>
<path d="M311.593 26.0193C311.593 24.5028 312.823 23.2734 314.339 23.2734C315.856 23.2734 317.085 24.5028 317.085 26.0193V157.88C317.085 158.366 316.691 158.76 316.205 158.76H312.473C311.987 158.76 311.593 158.366 311.593 157.88V26.0193Z" fill="#7F18D0"/>
</svg>
