<svg width="17" height="20" viewBox="0 0 17 20" fill="none" xmlns="http://www.w3.org/2000/svg">
<path d="M17 15L17 5C17 2 15.5 -6.55671e-08 12 -2.18557e-07L5 -5.24537e-07C1.5 -6.77527e-07 -8.74228e-08 2 -2.18557e-07 5L-6.55671e-07 15C-7.86805e-07 18 1.5 20 5 20L12 20C15.5 20 17 18 17 15ZM6 4.25C5.59 4.25 5.25 3.91 5.25 3.5C5.25 3.09 5.59 2.75 6 2.75L11 2.75C11.41 2.75 11.75 3.09 11.75 3.5C11.75 3.91 11.41 4.25 11 4.25L6 4.25ZM5.5 10C5.5 8.34 6.84 7 8.5 7C10.16 7 11.5 8.34 11.5 10C11.5 11.66 10.16 13 8.5 13C6.84 13 5.5 11.66 5.5 10ZM6 17.25C5.59 17.25 5.25 16.91 5.25 16.5C5.25 16.09 5.59 15.75 6 15.75L11 15.75C11.41 15.75 11.75 16.09 11.75 16.5C11.75 16.91 11.41 17.25 11 17.25L6 17.25Z" fill="#7F18D0"/>
</svg>
